<svg width="32" height="32" viewBox="0 0 32 32" fill="none" xmlns="http://www.w3.org/2000/svg">
<g clip-path="url(#clip0_1309_26)">
<path d="M24.5 0H7.5C3.35786 0 0 3.35786 0 7.5V24.5C0 28.6421 3.35786 32 7.5 32H24.5C28.6421 32 32 28.6421 32 24.5V7.5C32 3.35786 28.6421 0 24.5 0Z" fill="black"/>
<mask id="mask0_1309_26" style="mask-type:luminance" maskUnits="userSpaceOnUse" x="3" y="3" width="26" height="26">
<path d="M3.5 3.5H28.5V28.5H3.5V3.5Z" fill="white"/>
</mask>
<g mask="url(#mask0_1309_26)">
<path d="M28.0281 14.8867L17.1132 3.97181C16.8882 3.74653 16.6013 3.59309 16.289 3.53094C15.9767 3.46879 15.653 3.50072 15.3588 3.62269C15.1636 3.70372 14.9862 3.82234 14.8367 3.97181L12.5711 6.23744L15.4461 9.11244C16.1148 8.87806 16.8805 9.03819 17.4132 9.57106C17.6669 9.82513 17.8439 10.1454 17.9242 10.4954C18.0045 10.8453 17.9847 11.2107 17.8671 11.5499L20.6382 14.3211C21.3086 14.0898 22.082 14.2389 22.6171 14.7757C22.8852 15.0436 23.0677 15.3851 23.1416 15.7568C23.2155 16.1285 23.1774 16.5139 23.0322 16.8639C22.8376 17.3333 22.4645 17.7062 21.995 17.9006C21.5255 18.0949 20.9981 18.095 20.5286 17.9006C20.2961 17.8042 20.0848 17.6631 19.907 17.4851C19.3445 16.9226 19.2055 16.0944 19.4898 15.4014L16.9055 12.8171V19.6179C17.0931 19.7107 17.2645 19.8331 17.4132 19.9804C17.7725 20.3397 17.9743 20.827 17.9743 21.3351C17.9743 21.8432 17.7725 22.3305 17.4132 22.6898C17.0539 23.0491 16.5666 23.2509 16.0585 23.2509C15.5504 23.2509 15.0631 23.0491 14.7038 22.6898C14.4357 22.422 14.2531 22.0806 14.1791 21.7089C14.1051 21.3372 14.143 20.9519 14.2881 20.6018C14.3844 20.3694 14.5257 20.1582 14.7038 19.9804C14.889 19.7961 15.0945 19.6562 15.3312 19.5624V12.6983C15.0963 12.6023 14.883 12.4602 14.7038 12.2804C14.4349 12.0117 14.252 11.669 14.1785 11.296C14.105 10.9229 14.1443 10.5364 14.2913 10.1858L11.4555 7.35169L3.97109 14.8282C3.74578 15.0533 3.59232 15.3403 3.53013 15.6527C3.46794 15.9651 3.49981 16.2889 3.62172 16.5832C3.70279 16.7785 3.8215 16.956 3.97109 17.1056L14.8867 28.0196C15.0362 28.169 15.2136 28.2877 15.4088 28.3687C15.8034 28.5318 16.2465 28.5318 16.6411 28.3687C16.8363 28.2877 17.0137 28.169 17.1632 28.0196L28.0281 17.1719C28.1777 17.0225 28.2964 16.845 28.3774 16.6496C28.4584 16.4542 28.5001 16.2448 28.5001 16.0333C28.5001 15.8218 28.4584 15.6124 28.3774 15.417C28.2964 15.2216 28.1777 15.0441 28.0281 14.8946" fill="#FF9A7B"/>
</g>
</g>
<defs>
<clipPath id="clip0_1309_26">
<rect width="32" height="32" fill="white"/>
</clipPath>
</defs>
</svg>
