<svg width="18" height="18" viewBox="0 0 18 18" fill="none" xmlns="http://www.w3.org/2000/svg">
<g clip-path="url(#clip0_1219_2)">
<path d="M9.74998 14.05H8.29998C8.04998 14.05 7.84998 13.9 7.79998 13.65L7.54998 12.75L7.34998 12.65L6.54998 13.1C6.34998 13.2 6.09998 13.2 5.94998 13L4.89998 11.95C4.74998 11.8 4.69998 11.55 4.79998 11.35L5.24998 10.55L5.14998 10.35L4.24998 10.1C4.04998 10.05 3.84998 9.84995 3.84998 9.59995V8.14995C3.84998 7.89995 3.99998 7.69995 4.24998 7.64995L5.14998 7.39995L5.24998 7.19995L4.79998 6.39995C4.69998 6.19995 4.69998 5.94995 4.89998 5.79995L5.94998 4.74995C6.09998 4.59995 6.34998 4.54995 6.54998 4.64995L7.34998 5.09995L7.54998 4.99995L7.79998 4.09995C7.84998 3.89995 8.04998 3.69995 8.29998 3.69995H9.74998C9.99998 3.69995 10.2 3.84995 10.25 4.09995L10.5 4.99995L10.7 5.09995L11.5 4.64995C11.7 4.54995 11.95 4.54995 12.1 4.74995L13.15 5.79995C13.3 5.94995 13.35 6.19995 13.25 6.39995L12.8 7.19995L12.9 7.39995L13.8 7.64995C14 7.69995 14.2 7.89995 14.2 8.14995V9.59995C14.2 9.84995 14.05 10.05 13.8 10.1L12.9 10.35L12.8 10.55L13.25 11.35C13.35 11.55 13.35 11.8 13.15 11.95L12.1 13C11.95 13.15 11.7 13.2 11.5 13.1L10.7 12.65L10.5 12.75L10.25 13.65C10.15 13.9 9.94998 14.05 9.74998 14.05ZM8.64998 13.05H9.34998L9.59998 12L9.84998 11.9C10.05 11.85 10.2 11.75 10.4 11.7L10.65 11.55L11.6 12.1L12.1 11.6L11.55 10.65L11.7 10.4C11.8 10.25 11.85 10.05 11.9 9.84995L12 9.59995L13.05 9.34995V8.64995L12 8.39995L11.9 8.14995C11.85 7.94995 11.75 7.79995 11.7 7.59995L11.55 7.34995L12.1 6.39995L11.6 5.89995L10.65 6.44995L10.4 6.29995C10.25 6.19995 10.05 6.14995 9.84998 6.09995L9.59998 5.99995L9.34998 4.94995H8.64998L8.39998 5.99995L8.14998 6.09995C7.94998 6.14995 7.79998 6.24995 7.59998 6.29995L7.34998 6.44995L6.39998 5.89995L5.89998 6.39995L6.44998 7.34995L6.29998 7.59995C6.19998 7.74995 6.14998 7.94995 6.09998 8.14995L5.99998 8.39995L4.94998 8.64995V9.34995L5.99998 9.59995L6.09998 9.84995C6.14998 10.05 6.24998 10.2 6.29998 10.4L6.44998 10.65L5.89998 11.6L6.39998 12.1L7.34998 11.55L7.59998 11.7C7.74998 11.8 7.94998 11.85 8.14998 11.9L8.39998 12L8.64998 13.05Z" fill="black"/>
<path d="M8.99998 11.15C7.79998 11.15 6.84998 10.2 6.84998 8.99998C6.84998 7.79998 7.79998 6.84998 8.99998 6.84998C10.2 6.84998 11.15 7.79998 11.15 8.99998C11.15 10.2 10.2 11.15 8.99998 11.15ZM8.99998 7.84998C8.34998 7.84998 7.84998 8.34998 7.84998 8.99998C7.84998 9.64998 8.34998 10.15 8.99998 10.15C9.64998 10.15 10.15 9.64998 10.15 8.99998C10.15 8.34998 9.64998 7.84998 8.99998 7.84998Z" fill="black"/>
<path d="M9 1C8.7 1 8.5 1.2 8.5 1.5C8.5 1.8 8.7 2 9 2C12.85 2 16 5.15 16 9C16 12.85 12.85 16 9 16C5.15 16 2 12.85 2 9C2 7.6 2.4 6.25 3.2 5.1V5.7C3.2 6 3.4 6.2 3.7 6.2C4 6.2 4.2 6 4.2 5.7V3.2H1.7C1.4 3.2 1.2 3.4 1.2 3.7C1.2 4 1.4 4.2 1.7 4.2H2.6C1.55 5.55 1 7.25 1 9C1 13.4 4.6 17 9 17C13.4 17 17 13.4 17 9C17 4.6 13.4 1 9 1Z" fill="black"/>
</g>
<defs>
<clipPath id="clip0_1219_2">
<rect width="18" height="18" fill="white"/>
</clipPath>
</defs>
</svg>
