<svg width="18" height="18" viewBox="0 0 18 18" fill="none" xmlns="http://www.w3.org/2000/svg">
<g clip-path="url(#clip0_1221_2)">
<path d="M9.75001 14.05H8.30001C8.05001 14.05 7.85001 13.9 7.80001 13.65L7.55001 12.75L7.35001 12.65L6.55001 13.1C6.35001 13.2 6.10001 13.2 5.95001 13L4.90001 11.95C4.75001 11.8 4.70001 11.55 4.80001 11.35L5.25001 10.55L5.15001 10.35L4.25001 10.1C4.05001 10.05 3.85001 9.84995 3.85001 9.59995V8.14995C3.85001 7.89995 4.00001 7.69995 4.25001 7.64995L5.15001 7.39995L5.25001 7.19995L4.80001 6.39995C4.70001 6.19995 4.70001 5.94995 4.90001 5.79995L5.95001 4.74995C6.10001 4.59995 6.35001 4.54995 6.55001 4.64995L7.35001 5.09995L7.55001 4.99995L7.80001 4.09995C7.85001 3.89995 8.05001 3.69995 8.30001 3.69995H9.75001C10 3.69995 10.2 3.84995 10.25 4.09995L10.5 4.99995L10.7 5.09995L11.5 4.64995C11.7 4.54995 11.95 4.54995 12.1 4.74995L13.15 5.79995C13.3 5.94995 13.35 6.19995 13.25 6.39995L12.8 7.19995L12.9 7.39995L13.8 7.64995C14 7.69995 14.2 7.89995 14.2 8.14995V9.59995C14.2 9.84995 14.05 10.05 13.8 10.1L12.9 10.35L12.8 10.55L13.25 11.35C13.35 11.55 13.35 11.8 13.15 11.95L12.1 13C11.95 13.15 11.7 13.2 11.5 13.1L10.7 12.65L10.5 12.75L10.25 13.65C10.15 13.9 9.95001 14.05 9.75001 14.05ZM8.65001 13.05H9.35001L9.60001 12L9.85001 11.9C10.05 11.85 10.2 11.75 10.4 11.7L10.65 11.55L11.6 12.1L12.1 11.6L11.55 10.65L11.7 10.4C11.8 10.25 11.85 10.05 11.9 9.84995L12 9.59995L13.05 9.34995V8.64995L12 8.39995L11.9 8.14995C11.85 7.94995 11.75 7.79995 11.7 7.59995L11.55 7.34995L12.1 6.39995L11.6 5.89995L10.65 6.44995L10.4 6.29995C10.25 6.19995 10.05 6.14995 9.85001 6.09995L9.60001 5.99995L9.35001 4.94995H8.65001L8.40001 5.99995L8.15001 6.09995C7.95001 6.14995 7.80001 6.24995 7.60001 6.29995L7.35001 6.44995L6.40001 5.89995L5.90001 6.39995L6.45001 7.34995L6.30001 7.59995C6.20001 7.74995 6.15001 7.94995 6.10001 8.14995L6.00001 8.39995L4.95001 8.64995V9.34995L6.00001 9.59995L6.10001 9.84995C6.15001 10.05 6.25001 10.2 6.30001 10.4L6.45001 10.65L5.90001 11.6L6.40001 12.1L7.35001 11.55L7.60001 11.7C7.75001 11.8 7.95001 11.85 8.15001 11.9L8.40001 12L8.65001 13.05Z" fill="white"/>
<path d="M9.00001 11.15C7.80001 11.15 6.85001 10.2 6.85001 8.99998C6.85001 7.79998 7.80001 6.84998 9.00001 6.84998C10.2 6.84998 11.15 7.79998 11.15 8.99998C11.15 10.2 10.2 11.15 9.00001 11.15ZM9.00001 7.84998C8.35001 7.84998 7.85001 8.34998 7.85001 8.99998C7.85001 9.64998 8.35001 10.15 9.00001 10.15C9.65001 10.15 10.15 9.64998 10.15 8.99998C10.15 8.34998 9.65001 7.84998 9.00001 7.84998Z" fill="white"/>
<path d="M9 1C8.7 1 8.5 1.2 8.5 1.5C8.5 1.8 8.7 2 9 2C12.85 2 16 5.15 16 9C16 12.85 12.85 16 9 16C5.15 16 2 12.85 2 9C2 7.6 2.4 6.25 3.2 5.1V5.7C3.2 6 3.4 6.2 3.7 6.2C4 6.2 4.2 6 4.2 5.7V3.2H1.7C1.4 3.2 1.2 3.4 1.2 3.7C1.2 4 1.4 4.2 1.7 4.2H2.6C1.55 5.55 1 7.25 1 9C1 13.4 4.6 17 9 17C13.4 17 17 13.4 17 9C17 4.6 13.4 1 9 1Z" fill="white"/>
</g>
<defs>
<clipPath id="clip0_1221_2">
<rect width="18" height="18" fill="white"/>
</clipPath>
</defs>
</svg>
