<svg width="16" height="16" viewBox="0 0 16 16" fill="none" xmlns="http://www.w3.org/2000/svg">
<path d="M6.922 3.768L6.278 3.232C6.09836 3.0822 5.8719 3.00011 5.638 3H2C1.73478 3 1.48043 3.10536 1.29289 3.29289C1.10536 3.48043 1 3.73478 1 4V12C1 12.2652 1.10536 12.5196 1.29289 12.7071C1.48043 12.8946 1.73478 13 2 13H14C14.2652 13 14.5196 12.8946 14.7071 12.7071C14.8946 12.5196 15 12.2652 15 12V5C15 4.73478 14.8946 4.48043 14.7071 4.29289C14.5196 4.10536 14.2652 4 14 4H7.562C7.3281 3.99989 7.10164 3.9178 6.922 3.768Z" fill="#FF7043"/>
<path d="M6.29649 9.29454L9.18849 6.39754L10.0345 7.24754C9.97771 7.45887 9.99254 7.68305 10.0767 7.88505C10.1608 8.08706 10.3095 8.25549 10.4995 8.36404V11.136C10.3472 11.2234 10.2207 11.3494 10.1329 11.5014C10.0451 11.6535 9.99907 11.826 9.99949 12.0015C10.0053 12.2631 10.1133 12.5119 10.3004 12.6948C10.4874 12.8778 10.7386 12.9802 11.0002 12.9802C11.2618 12.9802 11.5131 12.8778 11.7001 12.6948C11.8871 12.5119 11.9951 12.2631 12.001 12.0015C12.0013 11.8259 11.9551 11.6533 11.8671 11.5013C11.7791 11.3493 11.6525 11.2232 11.5 11.136V8.70404L12.5355 9.75004C12.5062 9.82995 12.4943 9.91517 12.5005 10C12.5005 10.198 12.5592 10.3916 12.6692 10.5562C12.7792 10.7208 12.9355 10.8491 13.1184 10.9248C13.3013 11.0006 13.5026 11.0204 13.6968 10.9818C13.891 10.9432 14.0693 10.8478 14.2093 10.7079C14.3493 10.5679 14.4446 10.3895 14.4833 10.1953C14.5219 10.0012 14.5021 9.79988 14.4263 9.61697C14.3505 9.43406 14.2222 9.27773 14.0576 9.16774C13.893 9.05775 13.6995 8.99904 13.5015 8.99904C13.4166 8.99285 13.3314 9.00478 13.2515 9.03404L11.965 7.74854C12.0273 7.51682 12.0034 7.27034 11.8976 7.05494C11.7919 6.83954 11.6115 6.66989 11.39 6.57754C11.1864 6.49603 10.9625 6.48029 10.7495 6.53254L9.89849 5.68654L10.294 5.29654C10.3859 5.20266 10.4957 5.12807 10.6168 5.07715C10.738 5.02623 10.8681 5 10.9995 5C11.1309 5 11.261 5.02623 11.3821 5.07715C11.5033 5.12807 11.613 5.20266 11.705 5.29654L15.703 9.29454C15.7969 9.38649 15.8715 9.49625 15.9224 9.6174C15.9733 9.73854 15.9995 9.86863 15.9995 10C15.9995 10.1315 15.9733 10.2615 15.9224 10.3827C15.8715 10.5038 15.7969 10.6136 15.703 10.7055L11.705 14.7035C11.613 14.7974 11.5033 14.872 11.3821 14.9229C11.261 14.9739 11.1309 15.0001 10.9995 15.0001C10.8681 15.0001 10.738 14.9739 10.6168 14.9229C10.4957 14.872 10.3859 14.7974 10.294 14.7035L6.29599 10.7055C6.20211 10.6136 6.12752 10.5038 6.0766 10.3827C6.02568 10.2615 5.99945 10.1315 5.99945 10C5.99945 9.86863 6.02568 9.73854 6.0766 9.6174C6.12752 9.49625 6.20211 9.38649 6.29599 9.29454H6.29649Z" fill="#FFCCBC"/>
</svg>
