<svg width="15" height="15" viewBox="0 0 15 15" fill="none" xmlns="http://www.w3.org/2000/svg">
<path d="M5.75682 0.585573L5.06082 1.28157L6.01582 2.23657L7.01582 3.23657C7.24358 3.1239 7.49633 3.07123 7.75014 3.08353C8.00395 3.09584 8.25041 3.17273 8.4662 3.30691C8.68199 3.44109 8.85996 3.62812 8.98327 3.85031C9.10657 4.07249 9.17113 4.32247 9.17082 4.57657C9.16544 4.80333 9.11264 5.02645 9.01582 5.23157L10.0458 6.23157C10.3159 6.07551 10.6321 6.01858 10.9397 6.07061C11.2472 6.12263 11.5271 6.28035 11.7308 6.51657C11.8732 6.65311 11.9858 6.81764 12.0615 6.99981C12.1372 7.18197 12.1745 7.37783 12.1708 7.57507C12.1711 7.96894 12.0176 8.34734 11.7428 8.62957C11.6046 8.77394 11.438 8.88817 11.2535 8.9651C11.0691 9.04202 10.8707 9.07997 10.6708 9.07657C10.4731 9.07968 10.2769 9.04274 10.0938 8.96798C9.91081 8.89323 9.7448 8.78219 9.60582 8.64157C9.37035 8.4361 9.21365 8.15513 9.16257 7.84682C9.11148 7.5385 9.1692 7.22201 9.32582 6.95157L8.32582 5.92157C8.2753 5.94442 8.22356 5.96445 8.17082 5.98157V9.17157C8.46111 9.27497 8.7125 9.46526 8.89082 9.71657C9.07283 9.96638 9.17087 10.2675 9.17082 10.5766C9.17475 10.7746 9.13779 10.9713 9.06225 11.1543C8.98672 11.3374 8.87423 11.5029 8.73182 11.6406C8.45954 11.9125 8.09259 12.0686 7.70782 12.0761C7.42979 12.0848 7.15487 12.0155 6.91417 11.876C6.67346 11.7366 6.47658 11.5326 6.34579 11.2871C6.215 11.0416 6.15552 10.7644 6.17408 10.4868C6.19265 10.2093 6.28851 9.94248 6.45082 9.71657C6.62915 9.46526 6.88054 9.27497 7.17082 9.17157V5.98157C6.87991 5.87935 6.62819 5.68881 6.45082 5.43657C6.26819 5.18709 6.17008 4.88576 6.17082 4.57657C6.1704 4.3491 6.2235 4.12473 6.32582 3.92157L4.37582 1.97157L0.586323 5.75757C0.400487 5.94327 0.253057 6.16376 0.152454 6.40644C0.0518508 6.64913 4.64632e-05 6.90926 3.12403e-08 7.17197C-4.64007e-05 7.43468 0.051666 7.69483 0.152183 7.93755C0.2527 8.18027 0.400053 8.40081 0.585823 8.58657L5.75682 13.7576C6.13188 14.1325 6.64049 14.3431 7.17082 14.3431C7.70115 14.3431 8.20977 14.1325 8.58482 13.7576L13.7568 8.58557C14.1318 8.21052 14.3424 7.7019 14.3424 7.17157C14.3424 6.64124 14.1318 6.13263 13.7568 5.75757L8.58482 0.585573C8.20977 0.210631 7.70115 0 7.17082 0C6.64049 0 6.13188 0.210631 5.75682 0.585573Z" fill="#2563EB"/>
</svg>
