<svg width="16" height="16" viewBox="0 0 16 16" fill="none" xmlns="http://www.w3.org/2000/svg">
<g clip-path="url(#clip0_1232_2)">
<path d="M6.58599 1.41394L5.88999 2.10994L6.84499 3.06494L7.84499 4.06494C8.07275 3.95227 8.32549 3.8996 8.5793 3.9119C8.83311 3.92421 9.07957 4.00109 9.29536 4.13528C9.51115 4.26946 9.68913 4.45649 9.81243 4.67867C9.93573 4.90086 10.0003 5.15084 9.99999 5.40494C9.9946 5.6317 9.9418 5.85482 9.84499 6.05994L10.875 7.05994C11.1451 6.90388 11.4612 6.84695 11.7688 6.89898C12.0764 6.951 12.3562 7.10872 12.56 7.34494C12.7024 7.48148 12.815 7.64601 12.8907 7.82817C12.9664 8.01034 13.0036 8.2062 13 8.40344C13.0003 8.79731 12.8467 9.17571 12.572 9.45794C12.4338 9.60231 12.2672 9.71654 12.0827 9.79347C11.8982 9.87039 11.6998 9.90834 11.5 9.90494C11.3023 9.90805 11.106 9.87111 10.923 9.79635C10.74 9.72159 10.574 9.61056 10.435 9.46994C10.1995 9.26447 10.0428 8.9835 9.99173 8.67519C9.94065 8.36687 9.99836 8.05038 10.155 7.77994L9.15499 6.74994C9.10447 6.77279 9.05272 6.79282 8.99999 6.80994V9.99994C9.29027 10.1033 9.54166 10.2936 9.71999 10.5449C9.902 10.7947 10 11.0959 9.99999 11.4049C10.0039 11.6029 9.96695 11.7996 9.89142 11.9827C9.81588 12.1658 9.70339 12.3313 9.56099 12.4689C9.2887 12.7409 8.92175 12.897 8.53699 12.9044C8.25895 12.9131 7.98403 12.8438 7.74333 12.7044C7.50263 12.565 7.30574 12.361 7.17495 12.1155C7.04416 11.87 6.98469 11.5928 7.00325 11.3152C7.02181 11.0377 7.11767 10.7708 7.27999 10.5449C7.45831 10.2936 7.7097 10.1033 7.99999 9.99994V6.80994C7.70907 6.70772 7.45735 6.51718 7.27999 6.26494C7.09735 6.01546 6.99924 5.71413 6.99999 5.40494C6.99956 5.17747 7.05266 4.9531 7.15499 4.74994L5.20499 2.79994L1.41549 6.58594C1.22965 6.77164 1.08222 6.99213 0.981616 7.23481C0.881013 7.4775 0.829209 7.73763 0.829163 8.00034C0.829116 8.26305 0.880829 8.5232 0.981346 8.76592C1.08186 9.00864 1.22922 9.22918 1.41499 9.41494L6.58599 14.5859C6.96104 14.9609 7.46966 15.1715 7.99999 15.1715C8.53031 15.1715 9.03893 14.9609 9.41399 14.5859L14.586 9.41394C14.9609 9.03889 15.1716 8.53027 15.1716 7.99994C15.1716 7.46961 14.9609 6.961 14.586 6.58594L9.41399 1.41394C9.03893 1.039 8.53031 0.828369 7.99999 0.828369C7.46966 0.828369 6.96104 1.039 6.58599 1.41394Z" fill="#E64A19"/>
</g>
<defs>
<clipPath id="clip0_1232_2">
<rect width="16" height="16" fill="white"/>
</clipPath>
</defs>
</svg>
