<svg width="16" height="16" viewBox="0 0 16 16" fill="none" xmlns="http://www.w3.org/2000/svg">
<path d="M0.106262 6.59127H0.723762V8.83877H1.86626V9.40877H0.106262V6.59127ZM2.13876 7.50002H2.73126V9.40752H2.13876V7.50002ZM2.43501 6.55127C2.503 6.55127 2.56946 6.57143 2.62599 6.6092C2.68252 6.64697 2.72658 6.70066 2.7526 6.76347C2.77861 6.82628 2.78542 6.8954 2.77216 6.96208C2.75889 7.02876 2.72615 7.09001 2.67808 7.13809C2.63001 7.18616 2.56876 7.2189 2.50207 7.23216C2.43539 7.24543 2.36628 7.23862 2.30346 7.2126C2.24065 7.18659 2.18697 7.14253 2.14919 7.086C2.11142 7.02947 2.09126 6.96301 2.09126 6.89502C2.09126 6.80385 2.12748 6.71642 2.19194 6.65195C2.25641 6.58749 2.34384 6.55127 2.43501 6.55127ZM5.21126 6.59127H5.80376V8.27502L6.47626 7.49752H7.20251L6.42501 8.38127L7.18626 9.40877H6.44126L5.81126 8.46502H5.80376V9.40877H5.21126V6.59127ZM3.06001 7.50002H3.62501V7.76127H3.63251C3.68951 7.66396 3.77177 7.58388 3.87058 7.52953C3.96938 7.47517 4.08106 7.44856 4.19376 7.45252C4.79501 7.45252 4.90501 7.84752 4.90501 8.36127V9.40877H4.31751V8.48002C4.31751 8.25877 4.31751 7.98002 4.00876 7.98002C3.70001 7.98002 3.65251 8.22127 3.65251 8.47002V9.41377H3.06001V7.50002Z" fill="#1D1D1B"/>
<path d="M8.45126 8.23131C8.45246 8.18321 8.44387 8.13537 8.42602 8.0907C8.40816 8.04602 8.38141 8.00544 8.34739 7.97143C8.31337 7.93741 8.2728 7.91066 8.22812 7.8928C8.18345 7.87495 8.13561 7.86636 8.08751 7.86756C7.98392 7.86101 7.88191 7.8955 7.80355 7.96357C7.72519 8.03164 7.67677 8.12782 7.66876 8.23131H8.45126ZM8.95126 9.07756C8.85237 9.19607 8.72843 9.29117 8.58837 9.35601C8.4483 9.42086 8.2956 9.45383 8.14126 9.45256C7.54876 9.45256 7.07376 9.05756 7.07376 8.44381C7.07376 7.83006 7.54876 7.43631 8.14126 7.43631C8.69501 7.43631 9.04251 7.83131 9.04251 8.44381V8.63006H7.66751C7.68384 8.73602 7.73809 8.83244 7.82017 8.90142C7.90224 8.97039 8.00657 9.00722 8.11376 9.00506C8.19819 9.00494 8.28122 8.98344 8.3551 8.94256C8.42898 8.90169 8.4913 8.84277 8.53626 8.77131L8.95126 9.07756ZM10.2788 7.96006C10.182 7.95707 10.0866 7.98303 10.0047 8.03462C9.92274 8.0862 9.85809 8.16105 9.81897 8.2496C9.77986 8.33815 9.76806 8.43635 9.7851 8.53164C9.80213 8.62693 9.84722 8.71497 9.91459 8.78448C9.98195 8.85399 10.0685 8.90181 10.1632 8.92182C10.258 8.94184 10.3565 8.93312 10.4462 8.8968C10.5359 8.86048 10.6128 8.7982 10.6669 8.71795C10.721 8.63769 10.75 8.54311 10.75 8.44631C10.7553 8.38207 10.7468 8.31745 10.7249 8.25681C10.7031 8.19617 10.6685 8.14093 10.6234 8.09482C10.5784 8.04872 10.524 8.01283 10.4639 7.98958C10.4038 7.96633 10.3394 7.95626 10.275 7.96006M11.3 9.40756H10.75V9.15756C10.6813 9.2492 10.5925 9.32389 10.4905 9.37589C10.3884 9.42789 10.2758 9.45583 10.1613 9.45756C9.59126 9.45756 9.21626 9.04631 9.21626 8.46506C9.21626 7.93131 9.54876 7.44131 10.0913 7.44131C10.2053 7.43129 10.3201 7.44876 10.426 7.49226C10.532 7.53575 10.6259 7.60401 10.7 7.69131H10.7075V6.59131H11.3V9.40756Z" fill="#1D1D1B"/>
<path d="M15.5975 6.00002H12.1887C12.1114 5.99936 12.0369 6.02937 11.9816 6.08348C11.9263 6.1376 11.8947 6.21142 11.8937 6.28877V9.71127C11.8947 9.78863 11.9263 9.86245 11.9816 9.91657C12.0369 9.97068 12.1114 10.0007 12.1887 10H15.5975C15.6359 10.0005 15.674 9.99344 15.7097 9.9792C15.7454 9.96496 15.7779 9.94383 15.8054 9.91701C15.8329 9.8902 15.8549 9.85823 15.87 9.82293C15.8852 9.78763 15.8932 9.74969 15.8937 9.71127V6.28877C15.8932 6.25036 15.8852 6.21242 15.87 6.17712C15.8549 6.14182 15.8329 6.10985 15.8054 6.08304C15.7779 6.05622 15.7454 6.03509 15.7097 6.02085C15.674 6.0066 15.6359 5.99953 15.5975 6.00002Z" fill="#0076B2"/>
<path d="M12.4863 7.50002H13.08V9.40877H12.4863V7.50002ZM12.7825 6.55127C12.8505 6.55127 12.9169 6.57143 12.9735 6.6092C13.03 6.64697 13.0741 6.70066 13.1001 6.76347C13.1261 6.82628 13.1329 6.8954 13.1196 6.96208C13.1064 7.02876 13.0736 7.09001 13.0256 7.13809C12.9775 7.18616 12.9162 7.2189 12.8496 7.23216C12.7829 7.24543 12.7138 7.23862 12.651 7.2126C12.5881 7.18659 12.5345 7.14253 12.4967 7.086C12.4589 7.02947 12.4388 6.96301 12.4388 6.89502C12.4388 6.80385 12.475 6.71642 12.5394 6.65195C12.6039 6.58749 12.6913 6.55127 12.7825 6.55127ZM13.4513 7.50002H14.02V7.76127H14.0275C14.0845 7.66396 14.1668 7.58388 14.2656 7.52953C14.3644 7.47517 14.476 7.44856 14.5888 7.45252C15.19 7.45252 15.3 7.84752 15.3 8.36127V9.40877H14.7075V8.48002C14.7075 8.25877 14.7075 7.98002 14.3988 7.98002C14.09 7.98002 14.0425 8.22127 14.0425 8.47002V9.41377H13.45L13.4513 7.50002Z" fill="white"/>
</svg>
