<svg xmlns="http://www.w3.org/2000/svg" height="24px" viewBox="0 -960 960 960" width="24px" fill="#1f1f1f"><path d="M272-160q-30 0-51-21t-21-51q0-21 12-39.5t32-26.5l156-62v-90q-54 63-125.5 96.5T120-320v-80q68 0 123.5-28T344-508l54-64q12-14 28-21t34-7h40q18 0 34 7t28 21l54 64q45 52 100.5 80T840-400v80q-83 0-154.5-33.5T560-450v90l156 62q20 8 32 26.5t12 39.5q0 30-21 51t-51 21H400v-20q0-26 17-43t43-17h120q9 0 14.5-5.5T600-260q0-9-5.5-14.5T580-280H460q-42 0-71 29t-29 71v20h-88Zm151.5-503.5Q400-687 400-720t23.5-56.5Q447-800 480-800t56.5 23.5Q560-753 560-720t-23.5 56.5Q513-640 480-640t-56.5-23.5Z"/></svg>