<svg width="29" height="29" viewBox="0 0 29 29" fill="none" xmlns="http://www.w3.org/2000/svg">
<path d="M10.5453 1.38159e-07C13.1061 -0.000434393 15.5796 1.02414 17.5041 2.88251C19.4285 4.74088 20.6725 7.30604 21.0038 10.0993L23.9698 15.2308C24.1649 15.5687 24.1253 16.0718 23.6732 16.2864L21.0908 17.5015V21.75C21.0908 22.5191 20.8131 23.2568 20.3186 23.8006C19.8242 24.3445 19.1537 24.65 18.4544 24.65H15.8194L15.8181 29H3.95432V23.6437C3.95432 21.9327 3.37959 20.3131 2.31449 18.8514C1.07243 17.1456 0.293762 15.0884 0.0681881 12.917C-0.157386 10.7455 0.179316 8.54815 1.0395 6.57802C1.89969 4.60789 3.24836 2.94514 4.93014 1.78134C6.61192 0.617549 8.55839 5.40191e-05 10.5453 1.38159e-07ZM26.5666 23.3479L24.3718 21.7384C25.6736 19.5962 26.3669 17.0767 26.3636 14.5C26.3675 11.923 25.6747 9.40287 24.3731 7.26015L26.5666 5.65065C28.1578 8.2696 29.0048 11.35 29 14.5C29 17.7741 28.1036 20.8162 26.5666 23.3479Z" fill="#25343F"/>
</svg>
