<svg width="92" height="87" viewBox="0 0 92 87" fill="none" xmlns="http://www.w3.org/2000/svg">
<path fill-rule="evenodd" clip-rule="evenodd" d="M46 0C20.585 0 0 19.9586 0 44.6003C0 64.3359 13.1675 81.0053 31.4525 86.9148C33.7525 87.305 34.615 85.967 34.615 84.7963C34.615 83.737 34.5575 80.2248 34.5575 76.4895C23 78.5522 20.01 73.7577 19.09 71.2489C18.5725 69.9667 16.33 66.0084 14.375 64.9492C12.765 64.1129 10.465 62.0501 14.3175 61.9944C17.94 61.9386 20.5275 65.2279 21.39 66.5659C25.53 73.3117 32.1425 71.4162 34.7875 70.2454C35.19 67.3464 36.3975 65.3952 37.72 64.2802C27.485 63.1651 16.79 59.3184 16.79 42.2588C16.79 37.4085 18.5725 33.3945 21.505 30.2724C21.045 29.1574 19.435 24.5859 21.965 18.4534C21.965 18.4534 25.8175 17.2826 34.615 23.0249C38.295 22.0214 42.205 21.5196 46.115 21.5196C50.025 21.5196 53.935 22.0214 57.615 23.0249C66.4125 17.2269 70.265 18.4534 70.265 18.4534C72.795 24.5859 71.185 29.1574 70.725 30.2724C73.6575 33.3945 75.44 37.3527 75.44 42.2588C75.44 59.3741 64.6875 63.1651 54.4525 64.2802C56.12 65.6739 57.5575 68.3499 57.5575 72.5312C57.5575 78.4965 57.5 83.291 57.5 84.7963C57.5 85.967 58.3625 87.3608 60.6625 86.9148C69.7942 83.9255 77.7292 78.2351 83.3507 70.6445C88.9722 63.0538 91.9972 53.9451 92 44.6003C92 19.9586 71.415 0 46 0Z" fill="#2563EB"/>
</svg>
