<svg width="16" height="16" viewBox="0 0 16 16" fill="none" xmlns="http://www.w3.org/2000/svg">
<g clip-path="url(#clip0_1233_7)">
<path d="M8 0.195312C8.73438 0.195312 9.44271 0.289062 10.125 0.476562C10.8073 0.664062 11.4427 0.934896 12.0312 1.28906C12.6198 1.64323 13.1589 2.0599 13.6484 2.53906C14.138 3.01823 14.5573 3.55729 14.9062 4.15625C15.2552 4.75521 15.5234 5.39323 15.7109 6.07031C15.8984 6.7474 15.9948 7.45573 16 8.19531C16 9.05469 15.8698 9.88281 15.6094 10.6797C15.349 11.4766 14.9766 12.2083 14.4922 12.875C14.0078 13.5417 13.4323 14.125 12.7656 14.625C12.099 15.125 11.3542 15.513 10.5312 15.7891C10.5156 15.7943 10.4922 15.7969 10.4609 15.7969C10.4297 15.7969 10.4062 15.7995 10.3906 15.8047C10.2656 15.8047 10.1667 15.7682 10.0938 15.6953C10.0208 15.6224 9.98438 15.526 9.98438 15.4062V14.3125C9.98438 13.9531 9.98698 13.5859 9.99219 13.2109C9.99219 12.9453 9.95312 12.6771 9.875 12.4062C9.79688 12.1354 9.65625 11.9089 9.45312 11.7266C10.0573 11.6589 10.5859 11.5365 11.0391 11.3594C11.4922 11.1823 11.8724 10.9323 12.1797 10.6094C12.487 10.2865 12.7161 9.89583 12.8672 9.4375C13.0182 8.97917 13.0964 8.42708 13.1016 7.78125C13.1016 7.375 13.0339 6.99219 12.8984 6.63281C12.763 6.27344 12.5573 5.9401 12.2812 5.63281C12.3385 5.48698 12.3802 5.33594 12.4062 5.17969C12.4323 5.02344 12.4453 4.86719 12.4453 4.71094C12.4453 4.50781 12.4245 4.30729 12.3828 4.10938C12.3411 3.91146 12.2812 3.71354 12.2031 3.51562C12.1771 3.50521 12.1484 3.5 12.1172 3.5C12.0859 3.5 12.0573 3.5 12.0312 3.5C11.8646 3.5 11.6901 3.52604 11.5078 3.57812C11.3255 3.63021 11.1458 3.69792 10.9688 3.78125C10.7917 3.86458 10.6172 3.95573 10.4453 4.05469C10.2734 4.15365 10.125 4.2474 10 4.33594C9.34896 4.15365 8.68229 4.0625 8 4.0625C7.31771 4.0625 6.65104 4.15365 6 4.33594C5.86979 4.2474 5.72135 4.15365 5.55469 4.05469C5.38802 3.95573 5.21615 3.86719 5.03906 3.78906C4.86198 3.71094 4.67969 3.64323 4.49219 3.58594C4.30469 3.52865 4.13021 3.5 3.96875 3.5H3.88281C3.85156 3.5 3.82292 3.50521 3.79688 3.51562C3.72396 3.70833 3.66667 3.90365 3.625 4.10156C3.58333 4.29948 3.5599 4.5026 3.55469 4.71094C3.55469 4.86719 3.56771 5.02344 3.59375 5.17969C3.61979 5.33594 3.66146 5.48698 3.71875 5.63281C3.44271 5.9349 3.23698 6.26562 3.10156 6.625C2.96615 6.98438 2.89844 7.36979 2.89844 7.78125C2.89844 8.41667 2.97396 8.96615 3.125 9.42969C3.27604 9.89323 3.50521 10.2839 3.8125 10.6016C4.11979 10.9193 4.5 11.1719 4.95312 11.3594C5.40625 11.5469 5.9349 11.6719 6.53906 11.7344C6.38802 11.8698 6.27344 12.0312 6.19531 12.2188C6.11719 12.4062 6.0625 12.6016 6.03125 12.8047C5.89062 12.8724 5.74219 12.9245 5.58594 12.9609C5.42969 12.9974 5.27344 13.0156 5.11719 13.0156C4.78385 13.0156 4.50781 12.9375 4.28906 12.7812C4.07031 12.625 3.875 12.4115 3.70312 12.1406C3.64062 12.0417 3.5651 11.9427 3.47656 11.8438C3.38802 11.7448 3.29167 11.6562 3.1875 11.5781C3.08333 11.5 2.97135 11.4375 2.85156 11.3906C2.73177 11.3438 2.60677 11.3177 2.47656 11.3125H2.38281C2.34115 11.3125 2.30208 11.3203 2.26562 11.3359C2.22917 11.3516 2.19271 11.3672 2.15625 11.3828C2.11979 11.3984 2.10417 11.4245 2.10938 11.4609C2.10938 11.5234 2.14583 11.5833 2.21875 11.6406C2.29167 11.6979 2.35156 11.7448 2.39844 11.7812L2.42188 11.7969C2.53646 11.8854 2.63542 11.9688 2.71875 12.0469C2.80208 12.125 2.88021 12.2109 2.95312 12.3047C3.02604 12.3984 3.08594 12.4974 3.13281 12.6016C3.17969 12.7057 3.23958 12.8281 3.3125 12.9688C3.48958 13.375 3.73698 13.6693 4.05469 13.8516C4.3724 14.0339 4.75521 14.1276 5.20312 14.1328C5.33854 14.1328 5.47396 14.125 5.60938 14.1094C5.74479 14.0938 5.88021 14.0703 6.01562 14.0391V15.3984C6.01562 15.5234 5.97917 15.6224 5.90625 15.6953C5.83333 15.7682 5.73177 15.8047 5.60156 15.8047H5.53906C5.51302 15.8047 5.48958 15.7995 5.46875 15.7891C4.65104 15.5234 3.90625 15.1406 3.23438 14.6406C2.5625 14.1406 1.98698 13.5547 1.50781 12.8828C1.02865 12.2109 0.658854 11.4766 0.398438 10.6797C0.138021 9.88281 0.00520833 9.05469 0 8.19531C0 7.46094 0.09375 6.7526 0.28125 6.07031C0.46875 5.38802 0.739583 4.7526 1.09375 4.16406C1.44792 3.57552 1.86458 3.03646 2.34375 2.54688C2.82292 2.05729 3.36198 1.63802 3.96094 1.28906C4.5599 0.940104 5.19792 0.671875 5.875 0.484375C6.55208 0.296875 7.26042 0.200521 8 0.195312Z" fill="#FF7043"/>
</g>
<defs>
<clipPath id="clip0_1233_7">
<rect width="16" height="16" fill="white"/>
</clipPath>
</defs>
</svg>
