<svg width="16" height="16" viewBox="0 0 16 16" fill="none" xmlns="http://www.w3.org/2000/svg">
<path d="M0 6.38721V9.60746H0.55275V7.07546L2.59125 9.60871H6.053V9.09458H3.81912V8.24446H5.61538V7.73033H3.81912V6.90271H6.05288V6.38821H3.26625V6.90271H3.2665V9.58496L0.690875 6.38721H0ZM10.6362 6.38846V6.90283H11.765V9.60908H12.3175V6.90283H13.4234V6.38833H10.6362V6.38846ZM6.721 6.38983L9.31225 9.61033H10.0376L8.742 8.00121L10.0358 6.39233L9.312 6.39358L8.37963 7.55121L7.44462 6.38996H6.72087L6.721 6.38983ZM15.4908 8.21458C15.3956 8.21458 15.3101 8.23058 15.2344 8.26383C15.159 8.29675 15.0996 8.34292 15.0561 8.40233C15.0124 8.46192 14.9905 8.53125 14.9905 8.61033C14.9903 8.7065 15.0228 8.78346 15.088 8.84121C15.1528 8.89921 15.2413 8.94237 15.3535 8.97071L15.5085 9.00971C15.5523 9.0203 15.5951 9.03426 15.6368 9.05146C15.6691 9.06419 15.6982 9.08386 15.7221 9.10908C15.7429 9.13328 15.7539 9.16433 15.7531 9.19621C15.7534 9.23277 15.7409 9.26829 15.7177 9.29658C15.6926 9.32694 15.6598 9.35003 15.6228 9.36346C15.5775 9.3802 15.5295 9.38834 15.4812 9.38746C15.4338 9.38821 15.3865 9.38051 15.3418 9.36471C15.3027 9.35067 15.2681 9.32666 15.2413 9.29508C15.2148 9.26183 15.1994 9.22114 15.1973 9.17871H14.9546C14.958 9.26762 14.9815 9.34312 15.0254 9.40521C15.0911 9.49833 15.1299 9.51433 15.2079 9.54646C15.2854 9.57896 15.3775 9.59521 15.4831 9.59521C15.5925 9.59504 15.6855 9.57837 15.7622 9.54521C15.8393 9.51146 15.8983 9.46487 15.939 9.40546C15.9799 9.34558 16 9.27696 16 9.19821C15.9999 9.13987 15.9888 9.08917 15.9668 9.04608C15.945 9.00313 15.9143 8.96532 15.8767 8.93521C15.8377 8.90393 15.7945 8.87838 15.7483 8.85933C15.7002 8.83888 15.6504 8.82278 15.5995 8.81121L15.472 8.77996C15.4438 8.77322 15.416 8.76508 15.3886 8.75558C15.3624 8.7467 15.3374 8.73474 15.314 8.71996C15.2923 8.70697 15.2738 8.68908 15.2603 8.66771C15.2467 8.64601 15.2398 8.62079 15.2405 8.59521C15.2405 8.56291 15.2509 8.53147 15.2703 8.50558C15.2898 8.47933 15.3184 8.45858 15.355 8.44308C15.3971 8.42699 15.4419 8.41918 15.487 8.42008C15.5602 8.42 15.6197 8.43596 15.6657 8.46796C15.688 8.48292 15.7065 8.50273 15.72 8.5259C15.7335 8.54906 15.7416 8.57498 15.7436 8.60171H15.9811C15.9809 8.52975 15.9585 8.45961 15.917 8.40083C15.8753 8.3425 15.818 8.29683 15.7449 8.26383C15.672 8.23083 15.5873 8.21442 15.4908 8.21458ZM14.491 8.23258V9.17633C14.4906 9.22358 14.4832 9.26333 14.469 9.29558C14.4562 9.32598 14.434 9.35154 14.4058 9.36858C14.3783 9.38525 14.3449 9.39358 14.3054 9.39358C14.2692 9.39358 14.2371 9.3865 14.209 9.37233C14.1819 9.35902 14.1592 9.33813 14.1438 9.31221C14.1276 9.28363 14.1191 9.2513 14.1194 9.21846H13.874C13.8738 9.30112 13.8925 9.37012 13.9299 9.42546C13.9672 9.48095 14.0198 9.52445 14.0813 9.55071C14.1491 9.57984 14.2224 9.59432 14.2963 9.59321C14.3835 9.59321 14.46 9.57654 14.5256 9.54321C14.5899 9.51128 14.6436 9.46139 14.6801 9.39958C14.7168 9.33733 14.7355 9.26287 14.7361 9.17621V8.23258H14.491ZM7.8245 8.23996L6.719 9.61271H7.44462L8.18675 8.69021L7.8245 8.23996ZM13.5476 9.30221C13.5071 9.30221 13.4725 9.31621 13.4439 9.34421C13.43 9.35703 13.419 9.37265 13.4116 9.39004C13.4042 9.40742 13.4005 9.42618 13.4009 9.44508C13.4004 9.4642 13.404 9.4832 13.4114 9.50083C13.4188 9.51846 13.4299 9.53431 13.4439 9.54733C13.4725 9.57542 13.5071 9.58941 13.5476 9.58933C13.5729 9.58954 13.5977 9.5828 13.6194 9.56983C13.6413 9.55728 13.6597 9.53939 13.6729 9.51783C13.6865 9.496 13.6936 9.47079 13.6936 9.44508C13.6936 9.42613 13.6897 9.40738 13.682 9.39002C13.6744 9.37266 13.6633 9.35706 13.6494 9.34421C13.6361 9.33075 13.6202 9.3201 13.6028 9.31289C13.5853 9.30567 13.5665 9.30204 13.5476 9.30221Z" fill="white"/>
</svg>
