<svg width="128" height="77" viewBox="0 0 128 77" fill="none" xmlns="http://www.w3.org/2000/svg">
<g clip-path="url(#clip0_1240_9)">
<path d="M64 0C46.9333 0 36.2667 8.53333 32 25.6C38.4 17.0667 45.8667 13.8667 54.4 16C59.2685 17.217 62.7485 20.7495 66.6005 24.659C72.8755 31.0285 80.1375 38.4 96 38.4C113.067 38.4 123.733 29.8667 128 12.8C121.6 21.3333 114.133 24.5333 105.6 22.4C100.731 21.183 97.2515 17.6505 93.3995 13.741C87.1245 7.3715 79.8625 0 64 0ZM32 38.4C14.9333 38.4 4.26667 46.9333 0 64C6.4 55.4667 13.8667 52.2667 22.4 54.4C27.2685 55.617 30.7485 59.1495 34.6005 63.059C40.8755 69.4285 48.1375 76.8 64 76.8C81.0667 76.8 91.7333 68.2667 96 51.2C89.6 59.7333 82.1333 62.9333 73.6 60.8C68.7315 59.583 65.2515 56.0505 61.3995 52.141C55.1245 45.7715 47.8625 38.4 32 38.4Z" fill="url(#paint0_linear_1240_9)"/>
</g>
<defs>
<linearGradient id="paint0_linear_1240_9" x1="-355.584" y1="2457.6" x2="10699.3" y2="8831.66" gradientUnits="userSpaceOnUse">
<stop stop-color="#2298BD"/>
<stop offset="1" stop-color="#0ED7B5"/>
</linearGradient>
<clipPath id="clip0_1240_9">
<rect width="128" height="77" fill="white"/>
</clipPath>
</defs>
</svg>
