<svg width="92" height="87" viewBox="0 0 92 87" fill="none" xmlns="http://www.w3.org/2000/svg">
<path d="M13.5226 77.568L6.29626 0.918945H85.7038L78.4703 77.5564L45.9519 86.0818L13.5226 77.568Z" fill="#1572B6"/>
<path d="M46.0007 79.5656L72.2775 72.6763L78.4595 7.18567H46.0007V79.5656Z" fill="#33A9DC"/>
<path d="M46.0007 34.9556H59.1553L60.0638 25.3292H46.0007V15.9285H70.9284L70.6898 18.4508L68.246 44.3564H46.0007V34.9556Z" fill="white"/>
<path d="M46.0597 59.37L46.0158 59.3822L34.9449 56.5554L34.2369 49.0578H24.2592L25.6515 63.8186L46.0144 69.163L46.0597 69.1507V59.37Z" fill="#EBEBEB"/>
<path d="M58.31 43.9588L57.1126 56.548L46.0251 59.3782V69.1589L66.4046 63.8179L66.5541 62.2295L68.2834 43.9588H58.31Z" fill="white"/>
<path d="M46.0345 15.9285V25.3292H22.0225L21.8234 23.2168L21.3706 18.4508L21.1327 15.9285H46.0345ZM46.0007 34.957V44.3578H35.0693L34.8702 42.2453L34.4166 37.4793L34.1794 34.957H46.0007Z" fill="#EBEBEB"/>
</svg>
