<svg width="24" height="24" viewBox="0 0 24 24" fill="none" xmlns="http://www.w3.org/2000/svg">
<path d="M11.998 2C10.6847 1.99934 9.38413 2.25757 8.17069 2.75991C6.95725 3.26224 5.85473 3.99885 4.92618 4.92759C3.99762 5.85633 3.26124 6.959 2.75914 8.17254C2.25705 9.38608 1.99908 10.6867 2 12C1.99908 13.3135 2.25711 14.6143 2.75933 15.8279C3.26155 17.0416 3.99811 18.1444 4.92688 19.0731C5.85565 20.0019 6.95841 20.7385 8.17208 21.2407C9.38575 21.7429 10.6865 22.0009 12 22C17.528 22 22 17.527 22 12C21.999 6.473 17.49 2 11.998 2ZM7.308 14.146C7.635 14.582 8.071 14.764 8.689 14.764C8.981 14.764 9.272 14.727 9.526 14.618C9.781 14.51 10.072 14.363 10.434 14.145L11.453 15.599C10.617 16.291 9.671 16.617 8.58 16.617C7.707 16.617 6.98 16.435 6.326 16.072C5.69143 15.6975 5.18466 15.1402 4.872 14.473C4.545 13.782 4.363 12.982 4.363 12.036C4.363 11.128 4.545 10.291 4.871 9.6C5.18216 8.91182 5.68885 8.33036 6.328 7.928C6.945 7.528 7.708 7.346 8.545 7.346C9.128 7.346 9.673 7.418 10.109 7.6C10.599 7.79 11.053 8.06 11.454 8.4L10.436 9.782C10.1774 9.59098 9.89671 9.43183 9.6 9.308C9.346 9.2 9.018 9.163 8.727 9.163C7.491 9.163 6.873 10.108 6.873 12.035C6.837 13.018 7.019 13.708 7.31 14.145L7.308 14.146ZM17.308 16.4C16.945 17.528 16.399 18.364 15.635 18.982C14.872 19.601 13.853 19.928 12.581 20.037L12.327 18.329C13.163 18.219 13.781 18.037 14.181 17.746C14.326 17.638 14.618 17.31 14.618 17.31L11.599 7.637H14.107L15.853 14.873L17.708 7.637H20.144L17.308 16.4Z" fill="#00BFA5"/>
</svg>
