<svg width="32" height="32" viewBox="0 0 32 32" fill="none" xmlns="http://www.w3.org/2000/svg">
<g clip-path="url(#clip0_1294_2)">
<path d="M24.5 0H7.5C3.35786 0 0 3.35786 0 7.5V24.5C0 28.6421 3.35786 32 7.5 32H24.5C28.6421 32 32 28.6421 32 24.5V7.5C32 3.35786 28.6421 0 24.5 0Z" fill="#242938"/>
<path d="M28.5 22.8672C28.1361 23.005 27.7343 23.0048 27.3706 22.8665C27.0069 22.7282 26.7065 22.4614 26.5261 22.1166C25.3932 20.4207 24.1422 18.8013 22.9399 17.1472L22.4185 16.4522C20.9868 18.3704 19.555 20.2122 18.2484 22.1236C18.0782 22.4531 17.794 22.7095 17.4488 22.8451C17.1035 22.9806 16.7208 22.986 16.3719 22.8603L21.7444 15.6529L16.7471 9.14043C17.1068 9.01055 17.5004 9.00877 17.8613 9.13539C18.2221 9.26201 18.5283 9.50927 18.728 9.83543C19.8886 11.5314 21.1745 13.1508 22.4533 14.8676C23.7391 13.1647 25.011 11.5383 26.1995 9.8563C26.3706 9.53208 26.6549 9.28209 26.9984 9.15393C27.3419 9.02578 27.7205 9.0284 28.0621 9.1613L26.123 11.7329C25.2542 12.8797 24.3994 14.0334 23.4959 15.1524C23.4231 15.2176 23.3648 15.2974 23.3249 15.3867C23.2851 15.4759 23.2644 15.5725 23.2644 15.6702C23.2644 15.768 23.2851 15.8646 23.3249 15.9538C23.3648 16.0431 23.4231 16.1229 23.4959 16.1881C25.157 18.3913 26.8041 20.6014 28.5 22.8672ZM3.5 15.5626C3.646 14.8676 3.73625 14.1099 3.93788 13.4011C5.14025 9.12668 10.0401 7.3473 13.411 9.99543C15.3849 11.5454 15.8784 13.7417 15.7811 16.2159H4.66075C4.48 20.6363 7.67013 23.3052 11.7499 21.9429C12.4117 21.7062 13.0041 21.3084 13.4737 20.7854C13.9433 20.2624 14.2753 19.6307 14.4396 18.9473C14.6551 18.2523 15.0026 18.1342 15.6629 18.3357C15.5541 19.1818 15.255 19.9923 14.7879 20.7061C14.3208 21.42 13.698 22.0187 12.9663 22.4572C11.7572 23.1185 10.37 23.3805 9.0031 23.2057C7.63617 23.0309 6.35952 22.4284 5.35575 21.4842C4.36269 20.3676 3.76223 18.9567 3.646 17.4669C3.646 17.2307 3.55562 16.9943 3.507 16.7719C3.5024 16.3688 3.50007 15.9657 3.5 15.5626ZM4.67462 15.2637H14.7316C14.669 12.0597 12.6465 9.78693 9.94987 9.76618C6.94737 9.72443 4.79975 11.9484 4.66762 15.2498L4.67462 15.2637Z" fill="white"/>
</g>
<defs>
<clipPath id="clip0_1294_2">
<rect width="32" height="32" fill="white"/>
</clipPath>
</defs>
</svg>
