<svg width="92" height="87" viewBox="0 0 92 87" fill="none" xmlns="http://www.w3.org/2000/svg">
<g clip-path="url(#clip0_20_140)">
<path d="M32.7031 87.6797C41.2563 87.6797 48.1562 81.1547 48.1562 73.0664V58.4531H32.7031C24.15 58.4531 17.25 64.9781 17.25 73.0664C17.25 81.1547 24.15 87.6797 32.7031 87.6797Z" fill="#0ACF83"/>
<path d="M17.25 43.8398C17.25 35.7516 24.15 29.2266 32.7031 29.2266H48.1562V58.4531H32.7031C24.15 58.4531 17.25 51.9281 17.25 43.8398Z" fill="#A259FF"/>
<path d="M17.25 14.6133C17.25 6.525 24.15 0 32.7031 0H48.1562V29.2266H32.7031C24.15 29.2266 17.25 22.7016 17.25 14.6133Z" fill="#F24E1E"/>
<path d="M48.1562 0H63.6094C72.1625 0 79.0625 6.525 79.0625 14.6133C79.0625 22.7016 72.1625 29.2266 63.6094 29.2266H48.1562V0Z" fill="#FF7262"/>
<path d="M79.0625 43.8398C79.0625 51.9281 72.1625 58.4531 63.6094 58.4531C55.0563 58.4531 48.1562 51.9281 48.1562 43.8398C48.1562 35.7516 55.0563 29.2266 63.6094 29.2266C72.1625 29.2266 79.0625 35.7516 79.0625 43.8398Z" fill="#1ABCFE"/>
</g>
<defs>
<clipPath id="clip0_20_140">
<rect width="92" height="87" fill="white"/>
</clipPath>
</defs>
</svg>
