<svg width="92" height="87" viewBox="0 0 92 87" fill="none" xmlns="http://www.w3.org/2000/svg">
<path d="M77.1937 40.7133C77.1937 48.0539 62.675 54.0352 44.7062 54.0352C26.7375 54.0352 12.2188 48.0539 12.2188 40.7133C12.2188 33.3727 26.7375 27.3914 44.7062 27.3914C62.675 27.3914 77.1937 33.3727 77.1937 40.7133Z" fill="url(#paint0_radial_20_146)"/>
<path d="M22.0656 7.95237C22.0656 7.95237 27.1688 17.9438 39.1719 17.6719C64.2563 17.0602 68.6406 4.68987 69.2875 2.92269C69.9344 1.1555 70.8688 1.42737 71.0844 3.05862C79.2781 73.2024 14.375 43.0922 12.075 31.1977C24.9406 27.6633 21.85 20.7985 21.85 20.7985L22.0656 7.95237Z" fill="url(#paint1_radial_20_146)" stroke="#2E3436" stroke-miterlimit="10"/>
<path d="M31.5531 37.5867C43.5562 39.8297 49.6656 37.7227 53.1875 35.1399C52.2531 33.9844 50.6 32.693 50.6 32.693C50.6 32.693 54.7687 33.7805 56.2781 35.6157C57.7156 37.3828 56.8531 38.5383 56.4219 40.7813C55.5593 38.7422 53.9781 37.9946 53.7625 37.1789C50.6 41.461 42.6219 41.2571 31.5531 37.5867Z" fill="url(#paint2_linear_20_146)"/>
<path opacity="0.185" d="M69.3594 6.9328C68.3531 8.49608 66.8438 10.3312 64.6156 12.1664C59.9438 15.8367 52.1094 19.1672 39.2437 19.4391C31.6969 19.643 26.8812 16.1766 23.9344 13.118L23.7188 20.6625C23.9344 21.3422 24.4375 22.9734 23.575 25.2164C22.6406 27.5953 19.7656 30.1101 14.7344 31.9453C15.1656 32.8289 15.5969 33.7125 16.9625 34.9359C18.7594 36.6351 21.3469 38.4703 24.3656 40.1016C30.4031 43.3641 38.2375 45.9469 45.5688 46.0828C52.9 46.2187 59.5125 43.9758 64.1125 37.6547C68.2094 31.8094 70.5813 21.9539 69.3594 6.9328Z" stroke="url(#paint3_linear_20_146)" stroke-miterlimit="10"/>
<path d="M35.075 22.9734C35.075 26.7797 31.8406 29.8383 27.8156 29.8383C23.7906 29.8383 20.5563 26.7797 20.5563 22.9734C20.5563 19.1672 23.7906 16.1086 27.8156 16.1086C31.8406 16.1086 35.075 19.2351 35.075 22.9734Z" fill="url(#paint4_radial_20_146)" stroke="#888A85" stroke-width="0.783" stroke-miterlimit="10"/>
<path d="M20.7 25.5562C24.2219 30.1781 24.2219 35.7515 20.7719 38.1304C17.3219 40.5094 11.7156 38.6742 8.19373 34.0523C4.67186 29.4304 4.67186 23.857 8.12186 21.4781C11.5719 19.1672 17.1781 21.0023 20.7 25.5562Z" fill="url(#paint5_radial_20_146)" stroke="black" stroke-miterlimit="10"/>
<path d="M33.0625 23.993C33.0625 25.8281 31.4812 27.2555 29.6125 27.2555C27.6718 27.2555 26.1625 25.7602 26.1625 23.993C26.1625 22.2258 27.7437 20.7305 29.6125 20.7305C31.4812 20.7305 33.0625 22.1578 33.0625 23.993Z" fill="#2E3436" stroke="black" stroke-width="1.174" stroke-miterlimit="10"/>
<path opacity="0.281" d="M8.69688 23.0414C7.61876 23.7891 6.97188 25.1485 7.04376 27.0516C7.11563 28.8867 7.83438 31.1297 9.48751 33.1688C11.0688 35.1399 13.1531 36.4992 15.0219 37.043C16.8906 37.5867 18.4 37.4508 19.55 36.6352C20.7 35.8196 21.275 34.3922 21.275 32.5571C21.275 30.7219 20.4844 28.4789 18.9031 26.5078C17.3219 24.5367 15.3094 23.1774 13.4406 22.6336C11.5 22.0899 9.84688 22.2258 8.69688 23.0414Z" stroke="url(#paint6_linear_20_146)" stroke-miterlimit="10"/>
<path d="M13.9438 26.1C13.9438 28.0711 12.5063 29.6344 10.7813 29.6344C9.05627 29.6344 7.61877 28.0711 7.61877 26.1C7.61877 24.1289 9.05627 22.5656 10.7813 22.5656C12.5781 22.5656 13.9438 24.1289 13.9438 26.1ZM30.6188 22.4976C30.6188 23.789 29.5406 24.8086 28.175 24.8086C26.8094 24.8086 25.7313 23.789 25.7313 22.4976C25.7313 21.2062 26.8094 20.1867 28.175 20.1867C29.5406 20.1867 30.6188 21.2062 30.6188 22.4976Z" fill="white"/>
<path d="M51.3188 23.7211C51.3188 28.1391 47.5094 31.7414 42.8375 31.7414C38.1656 31.7414 34.3563 28.1391 34.3563 23.7211C34.3563 19.3032 38.0938 15.7008 42.7656 15.7008C47.4375 15.7008 51.3188 19.3032 51.3188 23.7211Z" fill="url(#paint7_radial_20_146)" stroke="#888A85" stroke-width="0.667" stroke-miterlimit="10"/>
<path d="M48.875 24.9445C48.875 27.0516 47.0781 28.8188 44.7782 28.8188C42.55 28.8188 40.6813 27.1195 40.6813 24.9445C40.6813 22.7695 42.4781 21.0703 44.7782 21.0703C47.0063 21.0703 48.875 22.7695 48.875 24.9445Z" fill="#2E3436" stroke="black" stroke-miterlimit="10"/>
<path d="M46.0719 23.1094C46.0719 24.6047 44.7781 25.7602 43.2688 25.7602C41.7594 25.7602 40.4656 24.5367 40.4656 23.1094C40.4656 21.6141 41.7594 20.4586 43.2688 20.4586C44.7781 20.4586 46.0719 21.6821 46.0719 23.1094Z" fill="white"/>
<path d="M68.7379 47.7285L70.2985 44.6168C64.1282 40.3406 52.8934 37.2284 52.8934 37.2284C50.9481 36.3526 50.3582 38.0291 51.7427 39.1209C51.7152 39.1287 61.4209 45.7213 68.7379 47.7285Z" fill="url(#paint8_linear_20_146)" stroke="#673907" stroke-width="1.00065" stroke-linecap="round"/>
<path d="M76.594 50.5897L77.4236 48.7295L70.5696 44.5601L70.0402 44.5059L69.8031 43.7884C68.8261 44.383 67.471 46.5655 67.8749 47.7879L68.6006 47.5254L68.9977 47.9074L76.594 50.5897Z" fill="url(#paint9_linear_20_146)" stroke="#888A85" stroke-width="1.00065" stroke-linecap="round"/>
<path d="M72.1226 47.0508L76.6594 48.9142" stroke="white" stroke-width="1.00065" stroke-linecap="round" stroke-linejoin="round"/>
<path d="M86.5086 58.4284C84.2601 51.5772 83.3906 46.1059 77.9293 46.5791C73.513 46.9594 73.3578 53.0403 77.9542 54.7567C82.3792 56.4056 86.5086 58.4284 86.5086 58.4284Z" fill="url(#paint10_radial_20_146)"/>
<path opacity="0.528" d="M78.3373 47.157C79.3004 46.8857 80.353 47.4315 80.6603 48.3615C80.9675 49.2915 80.424 50.2869 79.4608 50.5582C78.4976 50.8296 77.445 50.2838 77.1378 49.3538C76.8306 48.4238 77.3741 47.4284 78.3373 47.157Z" fill="white"/>
<path d="M70.1923 44.6497C70.8527 44.4636 71.5424 44.8212 71.7531 45.4589C71.9637 46.0966 71.6076 46.7488 70.9472 46.9348C70.2867 47.1209 69.5971 46.7633 69.3864 46.1256C69.1757 45.4879 69.5318 44.8357 70.1923 44.6497Z" fill="white"/>
<path opacity="0.428" d="M83.8345 54.3168C83.8345 54.3168 83.1036 51.8596 81.6032 50.5776C81.0737 50.12 81.7102 49.4462 82.2285 50.0519C83.3089 51.3086 83.8345 54.3168 83.8345 54.3168Z" fill="url(#paint11_linear_20_146)"/>
<path d="M44.4906 40.3734C47.15 40.6453 49.5937 39.8976 50.5281 39.5578C50.6719 38.6062 51.4625 36.839 54.1937 36.7031L53.2593 35.1398C53.2593 35.1398 49.7375 37.3828 46 38.0625L44.4906 40.3734Z" fill="url(#paint12_linear_20_146)"/>
<path d="M23.2156 57.8414L19.7656 76.7367L26.2344 76.6008L25.7312 78.3L19.2625 78.5719L18.6156 82.7859L29.9 82.4461L34.3562 57.7734L23.2156 57.8414ZM27.025 72.1148L24.7969 72.1828L26.5937 62.4633L28.75 62.3953L27.025 72.1148ZM35.5062 61.9875L39.9625 61.9195L36.5844 80.2031H32.3437L35.5062 61.9875ZM38.6687 79.7953L42.8375 57.7734L60.375 57.9773L56.35 79.7953L51.8937 79.8633L55.1281 62.6672L53.1156 62.7352L49.8094 80.2031H45.2812L48.5156 62.5992L46.5031 62.4633L43.3406 79.8633L38.6687 79.7953ZM62.675 58.1133L58.0031 82.9219H62.4594L62.9625 80.1352L69.575 79.9992L73.8156 58.2492L62.675 58.1133ZM65.9093 75.7852L63.7531 75.8531L66.3406 62.4633L68.3531 62.3953L65.9093 75.7852ZM36.6562 55.7344H40.9687L40.4656 59.8125H35.9375L36.6562 55.7344Z" fill="#1A1A1A"/>
<defs>
<radialGradient id="paint0_radial_20_146" cx="0" cy="0" r="1" gradientUnits="userSpaceOnUse" gradientTransform="translate(44.7213 40.7358) scale(32.4573 13.3516)">
<stop/>
<stop offset="1" stop-opacity="0"/>
</radialGradient>
<radialGradient id="paint1_radial_20_146" cx="0" cy="0" r="1" gradientUnits="userSpaceOnUse" gradientTransform="translate(33.0785 24.5169) scale(60.6346 41.9453)">
<stop stop-color="#857C63"/>
<stop offset="1" stop-color="#221F19"/>
</radialGradient>
<linearGradient id="paint2_linear_20_146" x1="54.6695" y1="36.5611" x2="34.9505" y2="40.6986" gradientUnits="userSpaceOnUse">
<stop/>
<stop offset="1" stop-opacity="0"/>
</linearGradient>
<linearGradient id="paint3_linear_20_146" x1="37.3455" y1="14.3434" x2="76.7752" y2="61.6745" gradientUnits="userSpaceOnUse">
<stop stop-color="white"/>
<stop offset="1" stop-color="white" stop-opacity="0"/>
</linearGradient>
<radialGradient id="paint4_radial_20_146" cx="0" cy="0" r="1" gradientUnits="userSpaceOnUse" gradientTransform="translate(27.9106 18.1768) scale(10.5341 9.96159)">
<stop stop-color="white"/>
<stop offset="1" stop-color="#B9B9B0"/>
</radialGradient>
<radialGradient id="paint5_radial_20_146" cx="0" cy="0" r="1" gradientTransform="matrix(6.84777 -3.73749 -4.61387 -7.56436 11.4224 26.3394)" gradientUnits="userSpaceOnUse">
<stop stop-color="#5B676B"/>
<stop offset="1" stop-color="#141718"/>
</radialGradient>
<linearGradient id="paint6_linear_20_146" x1="9.99845" y1="24.3585" x2="17.2985" y2="35.4811" gradientUnits="userSpaceOnUse">
<stop stop-color="white"/>
<stop offset="1" stop-color="white" stop-opacity="0"/>
</linearGradient>
<radialGradient id="paint7_radial_20_146" cx="0" cy="0" r="1" gradientUnits="userSpaceOnUse" gradientTransform="translate(42.8398 18.0814) scale(12.3658 11.6938)">
<stop stop-color="white"/>
<stop offset="1" stop-color="#B9B9B0"/>
</radialGradient>
<linearGradient id="paint8_linear_20_146" x1="61.4431" y1="39.5983" x2="58.9091" y2="41.9516" gradientUnits="userSpaceOnUse">
<stop stop-color="#6E3D09"/>
<stop offset="0.242" stop-color="#EA8113"/>
<stop offset="0.621" stop-color="#5C3307"/>
<stop offset="1" stop-color="#E07C12"/>
</linearGradient>
<linearGradient id="paint9_linear_20_146" x1="72.0851" y1="49.0041" x2="73.0984" y2="48.0049" gradientUnits="userSpaceOnUse">
<stop stop-color="#BDBDBD"/>
<stop offset="0.333" stop-color="#E2E2E2"/>
<stop offset="0.667" stop-color="#A3A3A3"/>
<stop offset="1" stop-color="#DDDDDD"/>
</linearGradient>
<radialGradient id="paint10_radial_20_146" cx="0" cy="0" r="1" gradientTransform="matrix(3.36133 0.0330056 -0.0997002 -3.3084 76.9243 51.0444)" gradientUnits="userSpaceOnUse">
<stop stop-color="#696969"/>
<stop offset="1"/>
</radialGradient>
<linearGradient id="paint11_linear_20_146" x1="81.5095" y1="49.695" x2="80.8633" y2="48.1163" gradientUnits="userSpaceOnUse">
<stop stop-color="white"/>
<stop offset="1" stop-color="white" stop-opacity="0"/>
</linearGradient>
<linearGradient id="paint12_linear_20_146" x1="49.9941" y1="37.8667" x2="46.7534" y2="38.6921" gradientUnits="userSpaceOnUse">
<stop/>
<stop offset="1" stop-opacity="0"/>
</linearGradient>
</defs>
</svg>
