<svg width="92" height="87" viewBox="0 0 92 87" fill="none" xmlns="http://www.w3.org/2000/svg">
<g clip-path="url(#clip0_20_102)">
<path d="M70.4375 0H21.5625C9.65386 0 0 9.12919 0 20.3906V66.6094C0 77.8708 9.65386 87 21.5625 87H70.4375C82.3461 87 92 77.8708 92 66.6094V20.3906C92 9.12919 82.3461 0 70.4375 0Z" fill="#E14E1D"/>
<path d="M17.25 12.9141L20.3442 45.7406H60.1306L58.7955 59.8203L45.9853 63.0957L33.1991 59.8251L32.3441 50.7845H20.8222L22.4699 68.2121L45.9828 74.3877L69.5254 68.2121L72.6818 34.8867H30.843L29.7925 23.7704H73.7218L74.75 12.9141H17.25Z" fill="white"/>
<path d="M46 12.9141H17.25L20.3442 45.7406H46V34.8867H30.843L29.7925 23.7704H46V12.9141ZM46 63.091L45.9853 63.0957L33.1991 59.8251L32.3441 50.7845H20.8222L22.4699 68.2121L45.9828 74.3877L46.0004 74.383V63.091H46Z" fill="#EBEBEB"/>
</g>
<defs>
<clipPath id="clip0_20_102">
<rect width="92" height="87" fill="white"/>
</clipPath>
</defs>
</svg>
