<svg width="92" height="87" viewBox="0 0 92 87" fill="none" xmlns="http://www.w3.org/2000/svg">
<path d="M1.01202 0.957001H90.988V86.0437H1.01202V0.957001Z" fill="#F0DB4F"/>
<path d="M83.6244 65.7502C82.9653 61.8686 80.2887 58.6081 72.3602 55.5678C69.6059 54.3709 66.5354 53.5138 65.6205 51.54C65.2956 50.3914 65.2525 49.7443 65.458 49.049C66.0481 46.7924 68.8965 46.0889 71.1541 46.736C72.6081 47.1968 73.9846 48.2565 74.8147 49.9468C78.6974 47.5693 78.6895 47.5849 81.4006 45.951C80.408 44.4957 79.8783 43.8242 79.2286 43.2016C76.8933 40.735 73.7114 39.4647 68.6227 39.5619L65.9719 39.8861C63.4319 40.4931 61.0111 41.7539 59.5916 43.4443C55.3323 48.0145 56.547 56.013 61.7299 59.3048C66.8359 62.9289 74.3367 63.7533 75.2948 67.1422C76.2271 71.2911 72.0705 72.6341 67.9391 72.157C64.8945 71.5582 63.2011 70.0948 61.3705 67.4338C58.001 69.2778 58.001 69.2778 54.5366 71.1619C55.3581 72.8605 56.2214 73.6292 57.5985 75.1007C64.1161 81.3525 80.426 81.0453 83.3513 71.5826C83.4699 71.2578 84.2576 69.0909 83.6244 65.7502ZM49.9258 40.0628H41.51L41.4755 60.6383C41.4755 65.0141 41.7148 69.0257 40.9623 70.2552C39.7311 72.6735 36.5406 72.3738 35.0865 71.9048C33.6066 71.217 32.8541 70.2389 31.9822 68.8564C31.7429 68.4595 31.5632 68.1523 31.5028 68.1285L24.6603 72.0911C25.7981 74.2994 27.4742 76.2161 29.6212 77.4613C32.8282 79.2815 37.1386 79.8395 41.6466 78.8607C44.5805 78.0526 47.1119 76.3785 48.4373 73.8304C50.3535 70.4897 49.9424 66.4462 49.9251 61.9739C49.9682 54.6775 49.9258 47.3824 49.9258 40.0628Z" fill="#323330"/>
</svg>
