<svg width="36" height="36" viewBox="0 0 36 36" fill="none" xmlns="http://www.w3.org/2000/svg">
<g clip-path="url(#clip0_1298_2)">
<path d="M27.5625 0H8.4375C3.7776 0 0 3.7776 0 8.4375V27.5625C0 32.2224 3.7776 36 8.4375 36H27.5625C32.2224 36 36 32.2224 36 27.5625V8.4375C36 3.7776 32.2224 0 27.5625 0Z" fill="#242938"/>
<path d="M14.2923 25.681C14.2923 25.681 13.2123 26.3383 15.0439 26.5263C17.2557 26.8081 18.4251 26.761 20.8668 26.2918C20.8668 26.2918 21.5241 26.7149 22.4165 27.0433C16.9216 29.3911 9.9716 26.9024 14.2923 25.681ZM13.5879 22.6288C13.5879 22.6288 12.4137 23.5212 14.2452 23.7086C16.6398 23.9433 18.5189 23.9904 21.7592 23.3336C21.7592 23.3336 22.1823 23.8034 22.8863 24.0381C16.2653 26.0104 8.84491 24.2256 13.5879 22.6292V22.6288ZM26.5493 27.9824C26.5493 27.9824 27.3475 28.6396 25.6569 29.1566C22.5103 30.0957 12.4608 30.3779 9.6431 29.1566C8.65745 28.7334 10.5356 28.1227 11.1458 28.0295C11.7564 27.8886 12.0849 27.8886 12.0849 27.8886C11.0049 27.1371 4.89967 29.4383 8.98539 30.1005C20.2091 31.9324 29.4608 29.3023 26.5489 27.9871L26.5493 27.9824ZM14.8088 19.435C14.8088 19.435 9.68978 20.6564 12.9768 21.0785C14.3857 21.266 17.1563 21.2194 19.7393 21.0314C21.8526 20.8438 23.9707 20.4679 23.9707 20.4679C23.9707 20.4679 23.219 20.7967 22.7027 21.1252C17.4856 22.4883 7.48281 21.8777 10.3476 20.4688C12.7903 19.2946 14.8088 19.435 14.8088 19.435ZM23.9658 24.5539C29.2261 21.83 26.7835 19.2003 25.0929 19.5293C24.6697 19.6231 24.4823 19.7168 24.4823 19.7168C24.4823 19.7168 24.623 19.435 24.952 19.3418C28.286 18.1676 30.9163 22.8639 23.8721 24.6954C23.8721 24.6954 23.9192 24.6483 23.9658 24.5545V24.5539ZM15.3252 31.9733C20.3971 32.3022 28.1457 31.7857 28.3337 29.3902C28.3337 29.3902 27.9587 30.3293 24.1543 31.0338C19.834 31.832 14.4799 31.7382 11.3338 31.2212C11.3338 31.2212 11.9911 31.7847 15.3256 31.9727L15.3252 31.9733Z" fill="white"/>
<path d="M20.7682 3.9375C20.7682 3.9375 23.6797 6.89611 17.9976 11.3569C13.4422 14.9726 16.9638 17.0392 17.9976 19.3867C15.3208 16.9921 13.396 14.8784 14.7102 12.906C16.6403 9.99605 21.9462 8.58712 20.7682 3.9375ZM19.2656 17.4153C20.6273 18.965 18.8905 20.3739 18.8905 20.3739C18.8905 20.3739 22.3655 18.5899 20.7691 16.382C19.3131 14.2687 18.1861 13.2353 24.2912 9.71283C24.2912 9.71283 14.664 12.1074 19.2666 17.4143L19.2656 17.4153Z" fill="#F58219"/>
</g>
<defs>
<clipPath id="clip0_1298_2">
<rect width="36" height="36" fill="white"/>
</clipPath>
</defs>
</svg>
