<svg width="36" height="36" viewBox="0 0 36 36" fill="none" xmlns="http://www.w3.org/2000/svg">
<path d="M18.8319 0.232237C18.5735 0.0842207 18.281 0.00634766 17.9832 0.00634766C17.6855 0.00634766 17.3929 0.0842207 17.1345 0.232237L3.12266 8.37021C2.58969 8.67171 2.29016 9.24067 2.29016 9.84396V26.1531C2.29016 26.7558 2.62288 27.325 3.1221 27.6268L17.134 35.7645C17.3924 35.9126 17.685 35.9905 17.9828 35.9905C18.2806 35.9905 18.5732 35.9126 18.8316 35.7645L32.8435 27.6265C33.3762 27.325 33.6754 26.7558 33.6754 26.1528V9.84396C33.6754 9.24096 33.3427 8.67199 32.8435 8.37021L18.8319 0.232237Z" fill="url(#paint0_linear_1290_43)"/>
<path d="M32.8773 8.36977L18.7991 0.231797C18.6609 0.161246 18.5159 0.105166 18.3662 0.0644531L2.59033 27.2242C2.72102 27.3844 2.87874 27.5205 3.05636 27.6264L17.1349 35.7641C17.5343 35.9984 18 36.0656 18.4329 35.9314L33.2435 8.67127C33.1463 8.54392 33.0209 8.44074 32.8773 8.36977Z" fill="url(#paint1_linear_1290_43)"/>
<path d="M32.8776 27.6259C33.277 27.3916 33.5765 26.9897 33.7095 26.5543L18.2999 0.0304478C17.9005 -0.0364897 17.4676 -0.00302097 17.1017 0.231542L3.12305 8.33604L18.1997 35.9984C18.3994 35.9646 18.6329 35.8977 18.8325 35.7973L32.8776 27.6259Z" fill="url(#paint2_linear_1290_43)"/>
<defs>
<linearGradient id="paint0_linear_1290_43" x1="23.6893" y1="6.29248" x2="10.8928" y2="32.2351" gradientUnits="userSpaceOnUse">
<stop stop-color="#3F873F"/>
<stop offset="0.33" stop-color="#3F8B3D"/>
<stop offset="0.637" stop-color="#3E9638"/>
<stop offset="0.934" stop-color="#3DA92E"/>
<stop offset="1" stop-color="#3DAE2B"/>
</linearGradient>
<linearGradient id="paint1_linear_1290_43" x1="15.8542" y1="19.9026" x2="51.5577" y2="-6.31481" gradientUnits="userSpaceOnUse">
<stop offset="0.138" stop-color="#3F873F"/>
<stop offset="0.402" stop-color="#52A044"/>
<stop offset="0.713" stop-color="#64B749"/>
<stop offset="0.908" stop-color="#6ABF4B"/>
</linearGradient>
<linearGradient id="paint2_linear_1290_43" x1="1.77746" y1="17.9929" x2="34.2" y2="17.9929" gradientUnits="userSpaceOnUse">
<stop offset="0.092" stop-color="#6ABF4B"/>
<stop offset="0.287" stop-color="#64B749"/>
<stop offset="0.598" stop-color="#52A044"/>
<stop offset="0.862" stop-color="#3F873F"/>
</linearGradient>
</defs>
</svg>
