<svg width="92" height="87" viewBox="0 0 92 87" fill="none" xmlns="http://www.w3.org/2000/svg">
<path d="M46 51.2485C50.5253 51.2485 54.1937 47.7794 54.1937 43.5C54.1937 39.2207 50.5253 35.7516 46 35.7516C41.4747 35.7516 37.8062 39.2207 37.8062 43.5C37.8062 47.7794 41.4747 51.2485 46 51.2485Z" fill="#61DAFB"/>
<path d="M77.1219 30.7219C75.5406 30.1781 73.8875 29.6344 72.1625 29.1586C72.5938 27.5274 72.9531 25.8961 73.2406 24.3328C74.75 15.361 73.0969 9.03987 68.4969 6.59299C67.1313 5.84534 65.6219 5.50549 63.8969 5.50549C58.8656 5.50549 52.4688 9.03987 46 14.9531C39.5313 9.03987 33.1344 5.50549 28.1031 5.50549C26.3781 5.50549 24.8688 5.84534 23.5031 6.59299C18.9031 9.10784 17.25 15.4289 18.7594 24.3328C19.0469 25.8961 19.4063 27.5274 19.8375 29.1586C18.1125 29.6344 16.4594 30.1102 14.8781 30.7219C5.89376 33.9844 1.00626 38.4703 1.00626 43.5C1.00626 48.5297 5.96563 53.0157 14.8781 56.2782C16.4594 56.8219 18.1125 57.3657 19.8375 57.8414C19.4063 59.4727 19.0469 61.1039 18.7594 62.6672C17.25 71.6391 18.9031 77.9602 23.5031 80.4071C24.8688 81.1547 26.3781 81.4946 28.1031 81.4946C33.2063 81.4946 39.6031 77.9602 46 72.0469C52.4688 77.9602 58.8656 81.4946 63.8969 81.4946C65.6219 81.4946 67.1313 81.1547 68.4969 80.4071C73.0969 77.8922 74.75 71.5711 73.2406 62.6672C72.9531 61.1039 72.5938 59.4727 72.1625 57.8414C73.8875 57.3657 75.5406 56.8899 77.1219 56.2782C86.1063 53.0157 90.9938 48.5297 90.9938 43.5C90.9938 38.4703 86.1063 33.9844 77.1219 30.7219ZM66.4844 9.99143C69.4313 11.6227 70.4375 16.6524 69.2156 23.7891C69 25.2164 68.6406 26.7117 68.2094 28.275C64.4719 27.4594 60.5188 26.9156 56.35 26.5758C53.9063 23.3133 51.3906 20.3906 48.875 17.7399C54.1938 12.7781 59.5844 9.37971 63.9688 9.37971C64.9031 9.37971 65.7656 9.58362 66.4844 9.99143ZM58.4344 50.2969C57.1406 52.4719 55.6313 54.6469 54.05 56.8219C51.3906 57.0258 48.7313 57.0938 46 57.0938C43.1969 57.0938 40.5375 57.0258 37.95 56.8219C36.3688 54.6469 34.9313 52.4719 33.6375 50.2969C32.2719 48.0539 30.9781 45.743 29.8281 43.5C30.9781 41.2571 32.2719 38.9461 33.6375 36.7031C34.9313 34.5282 36.4406 32.3532 38.0219 30.1782C40.6813 29.9742 43.3406 29.9063 46.0719 29.9063C48.875 29.9063 51.5344 29.9742 54.1219 30.1782C55.7031 32.3532 57.1406 34.5282 58.4344 36.7031C59.8 38.9461 61.0938 41.2571 62.2438 43.5C61.0219 45.743 59.8 47.986 58.4344 50.2969ZM64.4 48.0539C65.4781 50.4328 66.3406 52.7438 67.1313 55.0547C64.6875 55.5985 62.1 56.0063 59.3688 56.3461C60.2313 55.0547 61.1656 53.6953 61.9563 52.268C62.8188 50.8407 63.6094 49.4133 64.4 48.0539ZM46 66.4735C44.275 64.7063 42.6219 62.8032 41.0406 60.8321C42.6938 60.9 44.3469 60.968 46 60.968C47.6531 60.968 49.3063 60.9 50.9594 60.8321C49.3781 62.8032 47.725 64.7063 46 66.4735ZM32.6313 56.2782C29.9 55.9383 27.3125 55.5305 24.8688 54.9867C25.6594 52.7438 26.5219 50.3649 27.6 47.986C28.3906 49.3453 29.1813 50.7727 30.0438 52.1321C30.9063 53.6274 31.7688 54.9188 32.6313 56.2782ZM27.6 38.9461C26.5219 36.5672 25.6594 34.2563 24.8688 31.9453C27.3125 31.4016 29.9 30.9938 32.6313 30.6539C31.7688 31.9453 30.8344 33.3047 30.0438 34.7321C29.1813 36.1594 28.3906 37.5867 27.6 38.9461ZM46 20.5266C47.725 22.2938 49.3781 24.1969 50.9594 26.168C49.3063 26.1 47.6531 26.0321 46 26.0321C44.3469 26.0321 42.6938 26.1 41.0406 26.168C42.6219 24.1969 44.275 22.2938 46 20.5266ZM61.9563 34.8L59.3688 30.7219C62.1 31.0617 64.6875 31.4696 67.1313 32.0133C66.3406 34.2563 65.4781 36.6352 64.4 39.0141C63.6094 37.5867 62.8188 36.1594 61.9563 34.8ZM22.7844 23.7891C21.5625 16.6524 22.5688 11.6227 25.5156 9.99143C26.2344 9.58362 27.0969 9.37971 28.0313 9.37971C32.3438 9.37971 37.7344 12.7102 43.125 17.7399C40.6094 20.3227 38.0938 23.3133 35.65 26.5758C31.4813 26.9156 27.5281 27.5274 23.7906 28.275C23.3594 26.7117 23.0719 25.2164 22.7844 23.7891ZM5.03126 43.5C5.03126 40.3055 9.12813 36.9071 16.3156 34.3922C17.7531 33.8485 19.3344 33.3727 20.9156 32.9649C22.0656 36.3633 23.5031 39.9656 25.2281 43.568C23.5031 47.1703 21.9938 50.7047 20.9156 54.1031C10.9969 51.3844 5.03126 47.3063 5.03126 43.5ZM25.5156 77.0086C22.5688 75.3774 21.5625 70.3477 22.7844 63.211C23 61.7836 23.3594 60.2883 23.7906 58.725C27.5281 59.5407 31.4813 60.0844 35.65 60.4242C38.0938 63.6867 40.6094 66.6094 43.125 69.2602C37.8063 74.2219 32.4156 77.6203 28.0313 77.6203C27.0969 77.6203 26.2344 77.4164 25.5156 77.0086ZM69.2156 63.211C70.4375 70.3477 69.4313 75.3774 66.4844 77.0086C65.7656 77.4164 64.9031 77.6203 63.9688 77.6203C59.6563 77.6203 54.2656 74.2899 48.875 69.2602C51.3906 66.6774 53.9063 63.6867 56.35 60.4242C60.5188 60.0844 64.4719 59.4727 68.2094 58.725C68.6406 60.2883 68.9281 61.7836 69.2156 63.211ZM75.6844 52.6078C74.2469 53.1516 72.6656 53.6274 71.0844 54.0352C69.9344 50.6367 68.4969 47.0344 66.7719 43.4321C68.4969 39.8297 70.0063 36.2953 71.0844 32.8969C81.0031 35.6157 86.9688 39.6938 86.9688 43.5C86.9688 46.6946 82.8 50.093 75.6844 52.6078Z" fill="#61DAFB"/>
</svg>
