<svg width="24" height="24" viewBox="0 0 24 24" fill="none" xmlns="http://www.w3.org/2000/svg">
<g clip-path="url(#clip0_1655_617)">
<path d="M0 0H24V24H0V0Z" fill="#F03E2F"/>
<path d="M7.39181 6.21777C7.39181 8.2799 8.68799 9.50709 11.2832 10.154L14.0331 10.7804C16.4891 11.3346 17.9846 12.7113 17.9846 14.9538C18.0028 15.9334 17.6789 16.8886 17.0689 17.6553C17.0689 15.4178 15.8908 14.209 13.0491 13.4819L10.3491 12.8787C8.18681 12.394 6.51806 11.2625 6.51806 8.82646C6.50744 7.88335 6.81529 6.96423 7.39181 6.21777Z" fill="white"/>
<path d="M15.3791 14.4049C16.5521 15.1422 17.0663 16.1732 17.0663 17.653C16.0956 18.8747 14.3899 19.5604 12.3853 19.5604C9.01089 19.5604 6.64932 17.9288 6.12451 15.0932H9.36507C9.78226 16.395 10.887 16.9982 12.3615 16.9982C14.1615 16.9982 15.3581 16.0547 15.3818 14.3997M9.07632 9.2751C8.54269 8.96465 8.10327 8.51526 7.80489 7.97479C7.50847 7.43821 7.36555 6.83036 7.39182 6.21791C8.32857 5.00629 9.95795 4.2666 11.9443 4.2666C15.3818 4.2666 17.3706 6.05029 17.8614 8.5611H14.7441C14.4004 7.5711 13.5398 6.80048 11.9706 6.80048C10.2939 6.80048 9.14982 7.75935 9.0842 9.2751" fill="#F9B1AB"/>
</g>
<defs>
<clipPath id="clip0_1655_617">
<rect width="24" height="24" fill="white"/>
</clipPath>
</defs>
</svg>
