<svg width="16" height="16" viewBox="0 0 16 16" fill="none" xmlns="http://www.w3.org/2000/svg">
<g clip-path="url(#clip0_1239_5)">
<path d="M12.25 0H3.75C1.67893 0 0 1.67893 0 3.75V12.25C0 14.3211 1.67893 16 3.75 16H12.25C14.3211 16 16 14.3211 16 12.25V3.75C16 1.67893 14.3211 0 12.25 0Z" fill="#242938"/>
<path fill-rule="evenodd" clip-rule="evenodd" d="M5.1875 6.875C5.5625 5.375 6.5 4.625 8 4.625C10.25 4.625 10.5312 6.3125 11.6562 6.59375C12.4062 6.78133 13.0625 6.50008 13.625 5.75C13.25 7.25 12.3125 8 10.8125 8C8.5625 8 8.28125 6.3125 7.15625 6.03125C6.40625 5.84375 5.75 6.125 5.1875 6.875ZM2.375 10.25C2.75 8.75 3.6875 8 5.1875 8C7.4375 8 7.71875 9.6875 8.84375 9.96875C9.59375 10.1563 10.25 9.87508 10.8125 9.125C10.4375 10.625 9.5 11.375 8 11.375C5.75 11.375 5.46875 9.6875 4.34375 9.40625C3.59375 9.21867 2.9375 9.49992 2.375 10.25Z" fill="url(#paint0_linear_1239_5)"/>
</g>
<defs>
<linearGradient id="paint0_linear_1239_5" x1="5.40625" y1="4.625" x2="10.2187" y2="11.5937" gradientUnits="userSpaceOnUse">
<stop stop-color="#32B1C1"/>
<stop offset="1" stop-color="#14C6B7"/>
</linearGradient>
<clipPath id="clip0_1239_5">
<rect width="16" height="16" fill="white"/>
</clipPath>
</defs>
</svg>
