<svg width="71" height="71" viewBox="0 0 71 71" fill="none" xmlns="http://www.w3.org/2000/svg">
<g clip-path="url(#clip0_1237_2)">
<path d="M12.5747 26.0703H67.8604V66.9341H12.5747V26.0703Z" fill="white"/>
<path d="M0.832031 35.4501V70.118H70.168V0.782104H0.832031V35.4501ZM56.7057 32.6766C58.3664 33.062 59.8757 33.9306 61.0434 35.1727C61.6861 35.842 62.2449 36.5871 62.7074 37.3915C62.7074 37.4802 59.7121 39.5048 57.8872 40.6364C57.8206 40.6808 57.5544 40.3923 57.2604 39.9541C56.9272 39.3793 56.4539 38.8982 55.8845 38.5558C55.3152 38.2134 54.6683 38.0209 54.0044 37.9961C51.9021 37.8519 50.5487 38.9557 50.5598 40.7695C50.5429 41.2211 50.6463 41.669 50.8593 42.0675C51.3197 43.0271 52.1795 43.5984 54.8752 44.7633C59.8397 46.8988 61.9641 48.3077 63.2843 50.3101C64.7598 52.5289 65.087 56.1122 64.0886 58.7636C62.9792 61.648 60.2612 63.606 56.4173 64.255C54.6616 64.4562 52.8877 64.4376 51.1366 64.1995C48.4529 63.7571 45.9807 62.4686 44.081 60.5219C43.4431 59.8175 42.2006 57.9815 42.2783 57.8484C42.4804 57.6975 42.6936 57.5621 42.9162 57.4434L45.4844 56.0234L47.4757 54.8697L47.8917 55.4854C48.594 56.4895 49.4875 57.3453 50.5209 58.0037C52.7397 59.1685 55.7683 59.0076 57.2659 57.6598C57.7688 57.1658 58.0825 56.5112 58.1524 55.8098C58.2223 55.1085 58.0441 54.4048 57.6487 53.8213C57.094 53.0503 55.9846 52.4013 52.8839 51.0479C49.3062 49.5059 47.7641 48.5518 46.3552 47.0319C45.476 46.0288 44.8266 44.8456 44.4527 43.5651C44.174 42.1021 44.1327 40.6038 44.3306 39.1276C45.0684 35.6719 47.6587 33.2591 51.4417 32.5435C53.1937 32.3271 54.9682 32.3757 56.7057 32.6877V32.6766ZM40.4312 35.5832V38.4232H31.4286V64.0664H25.0441V38.4177H16.0194V35.6442C15.9911 34.6878 16.0133 33.7306 16.0859 32.7765C16.1303 32.7266 21.6328 32.7266 28.2891 32.7266H40.3979L40.4312 35.5832Z" fill="#007ACC"/>
</g>
<defs>
<clipPath id="clip0_1237_2">
<rect width="71" height="71" fill="white"/>
</clipPath>
</defs>
</svg>
